Coordinates
version=1
nRows=22
nColumns=24
inDegrees=yes

Units are S.I. units (second, meters, Newtons, ...)
Angles are in degrees.

endheader
time	pelvis_tilt	pelvis_list	pelvis_rotation	pelvis_tx	pelvis_ty	pelvis_tz	hip_flexion_r	hip_adduction_r	hip_rotation_r	knee_angle_r	ankle_angle_r	subtalar_angle_r	mtp_angle_r	hip_flexion_l	hip_adduction_l	hip_rotation_l	knee_angle_l	ankle_angle_l	subtalar_angle_l	mtp_angle_l	lumbar_extension	lumbar_bending	lumbar_rotation
      0.83300000	      0.68697575	      4.83355469	     -0.83911877	     -0.51083070	      1.02274015	      0.27518099	      8.55406032	     -0.22681386	      1.46854050	    -14.85878042	      7.12980508	    -10.12504093	      5.19441628	     14.14384715	      2.93624826	     -6.31522786	    -64.85557069	     -0.40370903	    -16.61293122	      5.68214384	     -2.86420092	     -4.12798999	      4.77147173
      0.83716667	      0.68243652	      4.91892519	     -1.07133928	     -0.50575914	      1.02333650	      0.27562843	      8.11582192	     -0.31070325	      1.55667426	    -14.55175792	      7.27845081	     -9.92402107	      5.22020586	     14.65113108	      2.98158820	     -6.48930132	    -64.48117756	     -0.09857187	    -16.25235423	      5.69254208	     -2.87411140	     -4.22315589	      5.20143707
      0.84133333	      0.70265172	      5.01281511	     -1.31944584	     -0.50069657	      1.02396115	      0.27606201	      7.65171994	     -0.40846309	      1.66168235	    -14.23700892	      7.37084448	     -9.72984316	      5.24722497	     15.11228538	      3.03758851	     -6.67343060	    -64.03979640	      0.17456798	    -15.89986123	      5.71014683	     -2.90464405	     -4.30943943	      5.55048530
      0.84550000	      0.70372356	      5.11872089	     -1.57300411	     -0.49564893	      1.02450852	      0.27650156	      7.22005780	     -0.52162376	      1.76114600	    -13.94194943	      7.47633745	     -9.52572803	      5.27518167	     15.58497278	      3.10071226	     -6.86776145	    -63.55444375	      0.43106669	    -15.51498449	      5.73473304	     -2.91046950	     -4.41860826	      5.88180620
      0.84966667	      0.72656525	      5.19875464	     -1.81772105	     -0.49063329	      1.02503693	      0.27693138	      6.75649405	     -0.60962373	      1.86120359	    -13.62676805	      7.56856922	     -9.32702287	      5.30532974	     16.03100664	      3.13230749	     -7.04966968	    -63.04620600	      0.68530755	    -15.10416087	      5.76758435	     -2.95932123	     -4.50611813	      6.21432208
      0.85383333	      0.71672606	      5.30051974	     -2.07518774	     -0.48560374	      1.02549049	      0.27735237	      6.34264973	     -0.72438975	      1.96144160	    -13.33630261	      7.65342281	     -9.13292553	      5.33096202	     16.49330026	      3.18548727	     -7.24619512	    -62.47556018	      0.89934752	    -14.69294066	      5.80042416	     -2.94519908	     -4.60276709	      6.49649814
      0.85800000	      0.73868140	      5.36775566	     -2.31665905	     -0.48061034	      1.02592291	      0.27776434	      5.88259427	     -0.80394765	      2.05853786	    -13.02356684	      7.75908396	     -8.94186057	      5.36086581	     16.92081013	      3.19752294	     -7.42522254	    -61.89513168	      1.13993141	    -14.23621444	      5.84347444	     -2.99079528	     -4.67542826	      6.83885164
      0.86216667	      0.74141919	      5.42931799	     -2.55827418	     -0.47564494	      1.02627323	      0.27817220	      5.44868955	     -0.87819789	      2.16256178	    -12.71717741	      7.86026084	     -8.76257911	      5.39472835	     17.36317382	      3.19888320	     -7.60569562	    -61.28471318	      1.36274302	    -13.78170706	      5.89693056	     -3.02317939	     -4.74739091	      7.18346319
      0.86633333	      0.72942092	      5.51284456	     -2.80837081	     -0.47067054	      1.02658700	      0.27856520	      5.04333422	     -0.97962177	      2.27168886	    -12.43237313	      7.92747129	     -8.59120766	      5.41777281	     17.79876540	      3.22574088	     -7.79462222	    -60.60535246	      1.52885492	    -13.35851378	      5.93701585	     -3.01606525	     -4.82985037	      7.42101751
      0.87050000	      0.75000481	      5.55867720	     -3.03769999	     -0.46573064	      1.02687901	      0.27894608	      4.58727139	     -1.04278215	      2.37116792	    -12.12108027	      8.05433975	     -8.41992050	      5.45650846	     18.19919756	      3.21141417	     -7.95774328	    -59.92360069	      1.74537294	    -12.89664344	      6.00814360	     -3.07239020	     -4.87911165	      7.81523611
      0.87466667	      0.76058516	      5.61018463	     -3.27099209	     -0.46079279	      1.02712291	      0.27932254	      4.14807239	     -1.11393720	      2.47816145	    -11.81880243	      8.14933670	     -8.27361767	      5.49069898	     18.59340445	      3.19980238	     -8.13078215	    -59.19332397	      1.91683078	    -12.45831240	      6.07603718	     -3.10993980	     -4.93667923	      8.10543235
      0.87883333	      0.73791110	      5.67017223	     -3.50594716	     -0.45587712	      1.02728649	      0.27968671	      3.75849770	     -1.19500208	      2.58900421	    -11.53793606	      8.21075782	     -8.13091042	      5.51169903	     19.01058679	      3.19790616	     -8.30260369	    -58.41563592	      2.04115476	    -12.05485688	      6.12049939	     -3.10479044	     -5.00358587	      8.31035213
      0.88300000	      0.74564632	      5.70740494	     -3.72980225	     -0.45095759	      1.02744060	      0.28003454	      3.32562629	     -1.25488738	      2.69820643	    -11.24385763	      8.31135621	     -8.00165584	      5.53489411	     19.38157559	      3.17362297	     -8.45924234	    -57.61473359	      2.19858426	    -11.62788583	      6.17277535	     -3.13571064	     -5.03700937	      8.59078257
      0.88716667	      0.74159857	      5.72323381	     -3.93523564	     -0.44606422	      1.02751396	      0.28036201	      2.89878159	     -1.29140868	      2.80809116	    -10.94035041	      8.43334205	     -7.89733979	      5.56630700	     19.76180475	      3.12626995	     -8.59953894	    -56.80219105	      2.36074196	    -11.21815522	      6.24892131	     -3.17101409	     -5.05306869	      8.94032079
      0.89133333	      0.72714064	      5.76492714	     -4.14720741	     -0.44117021	      1.02756561	      0.28067752	      2.50000520	     -1.35990965	      2.91593823	    -10.66376806	      8.49931207	     -7.78520183	      5.58623669	     20.12893476	      3.11230435	     -8.74201839	    -55.91827844	      2.44254615	    -10.86758359	      6.29875373	     -3.18197572	     -5.09671506	      9.13168491
      0.89550000	      0.74078428	      5.77121851	     -4.34014393	     -0.43628476	      1.02761349	      0.28097518	      2.04794805	     -1.39238328	      3.02634951	    -10.34896820	      8.61180490	     -7.69907152	      5.61550458	     20.45622462	      3.06362458	     -8.86235614	    -55.02355464	      2.56999417	    -10.49151425	      6.37925293	     -3.24006088	     -5.10335240	      9.44729937
      0.89966667	      0.69944354	      5.79223653	     -4.52764392	     -0.43140945	      1.02753656	      0.28124327	      1.67784951	     -1.44032781	      3.12498635	    -10.07695795	      8.68041261	     -7.60584522	      5.63158820	     20.82852574	      3.03331524	     -8.97589088	    -54.08226577	      2.62442285	    -10.17477132	      6.42506120	     -3.22547832	     -5.12564767	      9.60325643
      0.90383333	      0.69232488	      5.80445171	     -4.70788728	     -0.42652933	      1.02748325	      0.28150566	      1.26136677	     -1.48290410	      3.22337437	     -9.79096157	      8.77604150	     -7.52743688	      5.64889545	     21.14495614	      2.99732421	     -9.08203272	    -53.10452339	      2.69294598	     -9.83931241	      6.47932775	     -3.25747589	     -5.13975989	      9.82887219
      0.90800000	      0.68651260	      5.79805906	     -4.86815809	     -0.42165409	      1.02738875	      0.28173116	      0.83656176	     -1.50750903	      3.31315008	     -9.49746351	      8.86795871	     -7.45848081	      5.66496951	     21.44818248	      2.95163941	     -9.16000989	    -52.10190898	      2.74739762	     -9.53925417	      6.53491791	     -3.29199478	     -5.13057141	     10.03795596
      0.91216667	      0.65127099	      5.79019897	     -5.01774740	     -0.41677346	      1.02720895	      0.28194033	      0.44595074	     -1.52970646	      3.39880631	     -9.21222188	      8.96134703	     -7.40088728	      5.67959190	     21.76891566	      2.90552792	     -9.22707715	    -51.06819099	      2.78277920	     -9.25853779	      6.58991923	     -3.29822171	     -5.12117517	     10.22865626
      0.91633333	      0.63086448	      5.76544848	     -5.15292340	     -0.41189311	      1.02702000	      0.28212413	      0.02748490	     -1.53538254	      3.49392886	     -8.91004960	      9.06985105	     -7.36700440	      5.69976879	     22.05832276	      2.84928802	     -9.27701441	    -50.00678846	      2.82473987	     -8.99113439	      6.68031955	     -3.33012268	     -5.08831113	     10.47460115
      0.92050000	      0.54911402	      5.73057044	     -5.25072659	     -0.40700167	      1.02671033	      0.28224080	     -0.32099454	     -1.52720031	      3.54414595	     -8.62645436	      9.17715255	     -7.28670068	      5.70599644	     22.40300930	      2.79999654	     -9.26888813	    -48.91651752	      2.81472726	     -8.79970396	      6.70112413	     -3.27106659	     -5.04456882	     10.52531493
